<?xml version="1.0" encoding="utf-8"?>
<!-- Generator: Adobe Illustrator 27.0.1, SVG Export Plug-In . SVG Version: 6.00 Build 0)  -->
<svg version="1.1" id="Layer_1" xmlns="http://www.w3.org/2000/svg" xmlns:xlink="http://www.w3.org/1999/xlink" x="0px" y="0px"
	 viewBox="0 0 453.54 240.94" style="enable-background:new 0 0 453.54 240.94;" xml:space="preserve">
<style type="text/css">
	.st0{fill:#89C765;}
	.st1{fill:#0089C0;}
	.st2{fill:#FFFFFF;}
</style>
<g>
	<polygon class="st2" points="371.8,14.17 371.8,47.96 405.58,47.96 405.58,81.75 439.37,81.75 439.37,14.17 	"/>
	<g>
		<path class="st2" d="M99.99,79.9c-8.37-4.84-17.88-7.26-28.54-7.26c-9.96,0-18.92,2.11-26.88,6.33
			c-7.63,4.05-13.74,9.67-18.38,16.82V70.01H14.17v5.33v148.8v2.63H26.2v-2.63h0.01v-61.84c4.84,7.2,11.17,12.84,18.99,16.92
			c7.81,4.08,16.57,6.12,26.25,6.12c10.65,0,20.16-2.42,28.54-7.26c8.37-4.84,14.87-11.55,19.51-20.13
			c4.63-8.58,6.95-18.26,6.95-29.05c0-10.79-2.32-20.44-6.95-28.95C114.86,91.42,108.36,84.75,99.99,79.9z M108.81,152.13
			c-3.74,6.78-8.92,12.07-15.57,15.88c-6.64,3.81-14.32,5.71-23.04,5.71c-8.72,0-16.43-1.9-23.14-5.71
			c-6.71-3.8-11.93-9.1-15.67-15.88c-2.74-4.98-4.47-10.49-5.2-16.52v-13.36c0.73-5.95,2.46-11.42,5.2-16.4
			c3.74-6.78,8.96-12.07,15.67-15.88c6.71-3.8,14.42-5.71,23.14-5.71c8.72,0,16.39,1.9,23.04,5.71c6.64,3.81,11.83,9.1,15.57,15.88
			c3.74,6.78,5.6,14.46,5.6,23.04C114.41,137.6,112.54,145.35,108.81,152.13z"/>
		<path class="st2" d="M220.56,166.03c-7.26,5.12-15.81,7.68-25.63,7.68c-8.3,0-15.7-1.9-22.21-5.71c-6.5-3.8-11.55-9.1-15.15-15.88
			c-3.6-6.78-5.4-14.53-5.4-23.24c0-8.72,1.8-16.46,5.4-23.24c3.6-6.78,8.64-12.04,15.15-15.77c6.5-3.74,13.9-5.6,22.21-5.6
			c9.27,0,17.47,2.35,24.59,7.06c7.12,4.71,12.42,11.28,15.88,19.72h12.24c-3.04-11.62-9.41-20.93-19.09-27.91
			c-9.69-6.98-20.89-10.48-33.62-10.48c-10.66,0-20.13,2.39-28.43,7.16c-8.3,4.77-14.77,11.41-19.4,19.92
			c-4.64,8.51-6.95,18.23-6.95,29.16c0,10.93,2.31,20.65,6.95,29.16c4.63,8.51,11.1,15.19,19.4,20.03
			c8.3,4.84,17.78,7.26,28.43,7.26c13.14,0,24.49-3.56,34.03-10.69c9.55-7.12,16.12-16.98,19.72-29.57h-12.66
			C232.98,153.92,227.83,160.91,220.56,166.03z"/>
		<path class="st2" d="M339.58,168.1c-6.64,3.88-14.32,5.81-23.04,5.81c-11.9,0-21.69-3.63-29.37-10.9
			c-7.68-7.26-12.07-16.98-13.18-29.16h97.54c0.28-12.04-1.8-22.69-6.23-31.96c-4.43-9.27-10.86-16.46-19.3-21.58
			c-8.44-5.12-18.2-7.68-29.26-7.68c-10.79,0-20.34,2.39-28.64,7.16c-8.3,4.77-14.77,11.41-19.4,19.92
			c-4.64,8.51-6.95,18.23-6.95,29.16c0,11.07,2.28,20.86,6.85,29.37c4.57,8.51,11,15.15,19.3,19.92c8.3,4.77,17.85,7.16,28.64,7.16
			c12.04,0,22.65-2.98,31.86-8.92c9.2-5.95,15.88-14.04,20.03-24.28l-13.49-0.21C351.34,158.84,346.22,164.23,339.58,168.1z
			 M287.28,94.74c7.75-7.12,17.57-10.69,29.47-10.69c11.76,0,21.51,3.5,29.26,10.48c7.75,6.99,12.31,16.57,13.7,28.74H274
			C275.11,111.38,279.53,101.87,287.28,94.74z"/>
	</g>
</g>
</svg>
